<svg xmlns="http://www.w3.org/2000/svg" viewBox="0 0 750 500"><g id="freepik--Folder--inject-2"><polygon points="576.32 432.05 271.64 432.05 315.69 182.2 620.37 182.2 576.32 432.05" style="fill:#778498"></polygon><polygon points="419.97 156.32 320.26 156.32 315.69 182.2 422.4 182.2 419.97 156.32" style="fill:#778498"></polygon><g style="opacity:0.1"><polygon points="576.32 432.05 271.64 432.05 315.69 182.2 620.37 182.2 576.32 432.05"></polygon><polygon points="419.97 156.32 320.26 156.32 315.69 182.2 422.4 182.2 419.97 156.32"></polygon></g><path d="M309.5,166.88a19.17,19.17,0,0,1,0-8.7,19.17,19.17,0,0,1,0,8.7Z" style="fill:#263238"></path><path d="M300.64,169.44a17,17,0,0,1-2.61-3.52,17.35,17.35,0,0,1-1.75-4,16.58,16.58,0,0,1,2.61,3.51A17.61,17.61,0,0,1,300.64,169.44Z" style="fill:#263238"></path><path d="M294.24,176.09a19.18,19.18,0,0,1-7.53-4.35,17.16,17.16,0,0,1,4,1.74A17.58,17.58,0,0,1,294.24,176.09Z" style="fill:#263238"></path><path d="M292,185.05a19.17,19.17,0,0,1-8.7,0,19.17,19.17,0,0,1,8.7,0Z" style="fill:#263238"></path><path d="M294.6,193.91a17.64,17.64,0,0,1-3.52,2.61,17.16,17.16,0,0,1-4,1.74,17,17,0,0,1,3.52-2.61A16.8,16.8,0,0,1,294.6,193.91Z" style="fill:#263238"></path><path d="M301.24,200.3a19.13,19.13,0,0,1-4.35,7.54,16.83,16.83,0,0,1,1.75-4A17.31,17.31,0,0,1,301.24,200.3Z" style="fill:#263238"></path><path d="M310.2,202.51a17.45,17.45,0,0,1,.5,4.35,17,17,0,0,1-.5,4.35,16.57,16.57,0,0,1-.5-4.35A17.45,17.45,0,0,1,310.2,202.51Z" style="fill:#263238"></path><path d="M319.06,200a17,17,0,0,1,2.61,3.52,16.8,16.8,0,0,1,1.74,4,19.13,19.13,0,0,1-4.35-7.54Z" style="fill:#263238"></path><path d="M325.45,193.3a16.8,16.8,0,0,1,4,1.74,17,17,0,0,1,3.52,2.61,16.8,16.8,0,0,1-4-1.74A17,17,0,0,1,325.45,193.3Z" style="fill:#263238"></path><path d="M327.66,184.34a19.22,19.22,0,0,1,8.71,0,19.22,19.22,0,0,1-8.71,0Z" style="fill:#263238"></path><path d="M325.1,175.48a17.31,17.31,0,0,1,3.52-2.6,16.44,16.44,0,0,1,4-1.75,19.13,19.13,0,0,1-7.54,4.35Z" style="fill:#263238"></path><path d="M318.45,169.09a17.58,17.58,0,0,1,1.74-4,17,17,0,0,1,2.61-3.52,16.8,16.8,0,0,1-1.74,4A17,17,0,0,1,318.45,169.09Z" style="fill:#263238"></path><polygon points="575.87 432.05 270.54 432.05 227.18 191.27 532.52 191.27 575.87 432.05" style="fill:#778498"></polygon><circle cx="332.99" cy="325.77" r="12.69" style="fill:#263238"></circle><circle cx="433.31" cy="325.77" r="12.69" style="fill:#263238"></circle><path d="M401.38,340.49l-.7-1.33c-.06-.12-6.62-12.24-19.81-12.24-12,0-15,11.41-15.08,11.9l-.36,1.45-2.91-.7.35-1.46c0-.14,3.58-14.19,18-14.19,15,0,22.17,13.28,22.47,13.85l.7,1.32Z" style="fill:#263238"></path></g></svg>